HIERARCHY
ROOT Hips
{
	OFFSET	0.00	0.00	0.00
	CHANNELS 6 Xposition Yposition Zposition Zrotation Xrotation Yrotation
	JOINT LeftUpLeg
	{
		OFFSET	 0.126116	-0.014019	-0.065224
		CHANNELS 3 Zrotation Xrotation Yrotation
		JOINT LeftLeg
		{
			OFFSET	 0.000000	 0.000000	 0.569914
			CHANNELS 3 Zrotation Xrotation Yrotation
			JOINT LeftFoot
			{
				OFFSET	 0.000000	 0.000000	 0.544423
				CHANNELS 3 Zrotation Xrotation Yrotation
				JOINT LeftToeBase
				{
					OFFSET	 0.000000	 0.000000	 0.207117
					CHANNELS 3 Zrotation Xrotation Yrotation
					End Site
					{
						OFFSET	 0.000000	 0.000000	 0.207117
					}
				}
			}
		}
	}
	JOINT RightUpLeg
	{
		OFFSET	-0.124023	-0.008373	-0.065224
		CHANNELS 3 Zrotation Xrotation Yrotation
		JOINT RightLeg
		{
			OFFSET	 0.000000	 0.000000	 0.570047
			CHANNELS 3 Zrotation Xrotation Yrotation
			JOINT RightFoot
			{
				OFFSET	 0.000000	 0.000000	 0.544354
				CHANNELS 3 Zrotation Xrotation Yrotation
				JOINT RightToeBase
				{
					OFFSET	 0.000000	 0.000000	 0.207540
					CHANNELS 3 Zrotation Xrotation Yrotation
					End Site
					{
						OFFSET	 0.000000	 0.000000	 0.207540
					}
				}
			}
		}
	}
	JOINT Spine
	{
		OFFSET	 0.000184	-0.007763	 0.117403
		CHANNELS 3 Zrotation Xrotation Yrotation
		JOINT Spine1
		{
			OFFSET	 0.000000	 0.000000	 0.137269
			CHANNELS 3 Zrotation Xrotation Yrotation
			JOINT Spine2
			{
				OFFSET	 0.000000	 0.000000	 0.156879
				CHANNELS 3 Zrotation Xrotation Yrotation
				JOINT LeftShoulder
				{
					OFFSET	 0.080501	-0.002496	 0.160144
					CHANNELS 3 Zrotation Xrotation Yrotation
					JOINT LeftArm
					{
						OFFSET	 0.000000	 0.000000	 0.164363
						CHANNELS 3 Zrotation Xrotation Yrotation
						JOINT LeftForeArm
						{
							OFFSET	 0.000000	 0.000000	 0.364576
							CHANNELS 3 Zrotation Xrotation Yrotation
							JOINT LeftHand
							{
								OFFSET	 0.000000	 0.000000	 0.360812
								CHANNELS 3 Zrotation Xrotation Yrotation
								JOINT LeftHandIndex1
								{
									OFFSET	 0.000000	 0.000000	 0.086006
									CHANNELS 3 Zrotation Xrotation Yrotation
									JOINT LeftHandIndex2
									{
										OFFSET	 0.000000	 0.000000	 0.047236
										CHANNELS 3 Zrotation Xrotation Yrotation
										JOINT LeftHandIndex3
										{
											OFFSET	-0.004284	-0.000551	 0.038166
											CHANNELS 3 Zrotation Xrotation Yrotation
											End Site
											{
												OFFSET	-0.004284	-0.000551	 0.038166
											}
										}
									}
								}
							}
						}
					}
				}
				JOINT Neck
				{
					OFFSET	 0.000000	 0.000000	 0.176489
					CHANNELS 3 Zrotation Xrotation Yrotation
					JOINT Head
					{
						OFFSET	 0.000000	-0.001747	 0.077940
						CHANNELS 3 Zrotation Xrotation Yrotation
						End Site
						{
							OFFSET	 0.000000	-0.001747	 0.077940
						}
					}
				}
				JOINT RightShoulder
				{
					OFFSET	-0.080363	 0.000306	 0.159706
					CHANNELS 3 Zrotation Xrotation Yrotation
					JOINT RightArm
					{
						OFFSET	 0.000000	 0.000000	 0.164196
						CHANNELS 3 Zrotation Xrotation Yrotation
						JOINT RightForeArm
						{
							OFFSET	 0.000000	 0.000000	 0.365611
							CHANNELS 3 Zrotation Xrotation Yrotation
							JOINT RightHand
							{
								OFFSET	 0.000000	 0.000000	 0.360648
								CHANNELS 3 Zrotation Xrotation Yrotation
								JOINT RightHandIndex1
								{
									OFFSET	 0.000000	 0.000000	 0.069977
									CHANNELS 3 Zrotation Xrotation Yrotation
									JOINT RightHandIndex2
									{
										OFFSET	 0.000000	 0.000000	 0.052305
										CHANNELS 3 Zrotation Xrotation Yrotation
										JOINT RightHandIndex3
										{
											OFFSET	 0.009002	-0.000782	 0.042196
											CHANNELS 3 Zrotation Xrotation Yrotation
											End Site
											{
												OFFSET	 0.009002	-0.000782	 0.042196
											}
										}
									}
								}
							}
						}
					}
				}
			}
		}
	}
}
MOTION
Frames:    12
Frame Time: 0.03333334
-0.000058	 0.019698	 1.271712	-0.003122	 0.008104	 0.062604	-18.379600	-1.994325	-179.151700	 1.464580	-12.634020	-0.738845	-2.209515	 71.777750	-4.377517	-2.385833	 28.452760	 0.000004	 18.259240	-2.294016	 179.127400	-1.450236	-12.720440	 0.730394	 2.235558	 71.629140	 4.184344	 2.384658	 28.388730	 0.000004	-1.221946	 2.704934	 0.167464	-0.601320	 3.692752	-0.280022	 1.849868	-4.701225	 0.426274	-91.776210	 78.527470	-180.000000	 65.119610	 42.637890	-54.201020	-7.568779	 5.200091	-13.124300	-30.800910	-18.127860	-4.577407	-2.635965	 4.993658	 6.788941	-5.165319	 0.784187	 3.516649	-5.225038	 0.466231	 0.424329	-0.000002	-3.783157	-0.089647	 1.797385	 5.020599	-0.078819	 89.782130	 78.203890	 180.000000	-64.628760	 42.125460	 55.103870	 7.482620	 5.790417	 13.316700	 31.649540	-18.800580	 9.401686	 6.112037	 4.509576	-0.364401	 4.968462	 1.518543	-9.347576	 5.168945	 0.703820	 2.021906
-0.000057	 0.019672	 1.272121	-0.003113	 0.008108	 0.062574	-18.378230	-1.994201	-179.151800	 1.464581	-12.633760	-0.738835	-2.224475	 71.708560	-4.362051	-2.385833	 28.452760	 0.000004	 18.257860	-2.293934	 179.127500	-1.450233	-12.720300	 0.730387	 2.249690	 71.560010	 4.169684	 2.384658	 28.388730	 0.000004	-1.221951	 2.704934	 0.167479	-0.601325	 3.692742	-0.280008	 1.849875	-4.701225	 0.426271	-91.776230	 78.527450	-180.000000	 65.110300	 42.639920	-54.187770	-7.566184	 5.202040	-13.129240	-30.839500	-18.584720	-4.589571	-2.635965	 4.993658	 6.788941	-5.165319	 0.784187	 3.516649	-5.225038	 0.466231	 0.424329	-0.000002	-3.783157	-0.089647	 1.797385	 5.020599	-0.078819	 89.782180	 78.203900	 179.999900	-64.523100	 42.046680	 55.148580	 7.272840	 5.780663	 13.383820	 31.729210	-19.326080	 9.400221	 6.112037	 4.509576	-0.364401	 4.968462	 1.518543	-9.347576	 5.168945	 0.703820	 2.021906
-0.000055	 0.019636	 1.272694	-0.003121	 0.008103	 0.062561	-18.376250	-1.994205	-179.152000	 1.464591	-12.633770	-0.738832	-2.245131	 71.612300	-4.340657	-2.385833	 28.452760	 0.000004	 18.255930	-2.293919	 179.127600	-1.450235	-12.720310	 0.730387	 2.269181	 71.463710	 4.149432	 2.384658	 28.388730	 0.000004	-1.221946	 2.704934	 0.167486	-0.601319	 3.692759	-0.280031	 1.849875	-4.701234	 0.426281	-91.776180	 78.527450	 180.000000	 65.093540	 42.643780	-54.164480	-7.561675	 5.204998	-13.136860	-30.900030	-19.296630	-4.609192	-2.635965	 4.993658	 6.788941	-5.165319	 0.784187	 3.516649	-5.225038	 0.466231	 0.424329	-0.000002	-3.783157	-0.089647	 1.797385	 5.020599	-0.078819	 89.782140	 78.203900	 180.000000	-64.362400	 41.934350	 55.282380	 7.082370	 5.738262	 13.409020	 31.754360	-20.121520	 9.385504	 6.112037	 4.509576	-0.364401	 4.968462	 1.518543	-9.347576	 5.168945	 0.703820	 2.021906
-0.000053	 0.019594	 1.273356	-0.003121	 0.008103	 0.062561	-18.373980	-1.994244	-179.152100	 1.464585	-12.633890	-0.738840	-2.268440	 71.502300	-4.316467	-2.385833	 28.452760	 0.000004	 18.253640	-2.293911	 179.127800	-1.450239	-12.720330	 0.730386	 2.291121	 71.353650	 4.126560	 2.384658	 28.388730	 0.000004	-1.221946	 2.704934	 0.167486	-0.601319	 3.692754	-0.280037	 1.849885	-4.701232	 0.426285	-91.776270	 78.527450	-179.999900	 65.068590	 42.649320	-54.130430	-7.555371	 5.208722	-13.146480	-30.978810	-20.213410	-4.635841	-2.635965	 4.993658	 6.788941	-5.165319	 0.784187	 3.516649	-5.225038	 0.466231	 0.424329	-0.000002	-3.783157	-0.089647	 1.797385	 5.020599	-0.078819	 89.782100	 78.203870	 180.000000	-64.249830	 41.626060	 55.624800	 6.743417	 5.613338	 13.341170	 31.927060	-21.285110	 9.301592	 6.112037	 4.509576	-0.364401	 4.968462	 1.518543	-9.347576	 5.168945	 0.703820	 2.021906
-0.000050	 0.019553	 1.274024	-0.003121	 0.008103	 0.062566	-18.371670	-1.994168	-179.152300	 1.464587	-12.633780	-0.738834	-2.291320	 71.392450	-4.292676	-2.385833	 28.452760	 0.000004	 18.251360	-2.293889	 179.128000	-1.450230	-12.720320	 0.730388	 2.312720	 71.243800	 4.104015	 2.384658	 28.388730	 0.000004	-1.221946	 2.704933	 0.167484	-0.601320	 3.692745	-0.280026	 1.849876	-4.701220	 0.426278	-91.776180	 78.527470	 180.000000	 65.037190	 42.655430	-54.087820	-7.547839	 5.212711	-13.156760	-31.067660	-21.234560	-4.667264	-2.635965	 4.993658	 6.788941	-5.165319	 0.784187	 3.516649	-5.225038	 0.466231	 0.424329	-0.000002	-3.783157	-0.089647	 1.797385	 5.020599	-0.078819	 89.782260	 78.203900	 179.999900	-64.090130	 41.275240	 56.090680	 6.398089	 5.440233	 13.161960	 32.131410	-22.574620	 9.215560	 6.112037	 4.509576	-0.364401	 4.968462	 1.518543	-9.347576	 5.168945	 0.703820	 2.021906
-0.000047	 0.019513	 1.274699	-0.003113	 0.008108	 0.062574	-18.369380	-1.994148	-179.152500	 1.464581	-12.633750	-0.738835	-2.313895	 71.282870	-4.269190	-2.385833	 28.452760	 0.000004	 18.248970	-2.293905	 179.128100	-1.450233	-12.720350	 0.730388	 2.333888	 71.134210	 4.081822	 2.384658	 28.388730	 0.000004	-1.221950	 2.704934	 0.167479	-0.601323	 3.692746	-0.280011	 1.849865	-4.701224	 0.426270	-91.776280	 78.527450	-179.999900	 64.998440	 42.661750	-54.034950	-7.539055	 5.217355	-13.168830	-31.166620	-22.355400	-4.703999	-2.635965	 4.993658	 6.788941	-5.165319	 0.784187	 3.516649	-5.225038	 0.466231	 0.424329	-0.000002	-3.783157	-0.089647	 1.797385	 5.020599	-0.078819	 89.782230	 78.203870	 179.999900	-63.853000	 40.890710	 56.654920	 6.002814	 5.226042	 12.908980	 32.355610	-23.980850	 9.131193	 6.112037	 4.509576	-0.364401	 4.968462	 1.518543	-9.347576	 5.168945	 0.703820	 2.021906
-0.000044	 0.019472	 1.275390	-0.003113	 0.008108	 0.062574	-18.366940	-1.994148	-179.152600	 1.464583	-12.633780	-0.738835	-2.336340	 71.171880	-4.245718	-2.385833	 28.452760	 0.000004	 18.246600	-2.293832	 179.128300	-1.450231	-12.720220	 0.730381	 2.355079	 71.023090	 4.059618	 2.384658	 28.388730	 0.000004	-1.221951	 2.704934	 0.167479	-0.601325	 3.692749	-0.279998	 1.849866	-4.701227	 0.426264	-91.776240	 78.527490	-180.000000	 64.951140	 42.667750	-53.969870	-7.529014	 5.222708	-13.182650	-31.277340	-23.589160	-4.747240	-2.635965	 4.993658	 6.788941	-5.165319	 0.784187	 3.516649	-5.225038	 0.466231	 0.424329	-0.000002	-3.783157	-0.089647	 1.797385	 5.020599	-0.078819	 89.782210	 78.203890	 179.999900	-63.507640	 40.452100	 57.283860	 5.537465	 4.999123	 12.656730	 32.602420	-25.524400	 9.046511	 6.112037	 4.509576	-0.364401	 4.968462	 1.518543	-9.347576	 5.168945	 0.703820	 2.021906
-0.000041	 0.019433	 1.276070	-0.003113	 0.008108	 0.062574	-18.364580	-1.994122	-179.152800	 1.464585	-12.633760	-0.738834	-2.358036	 71.063310	-4.223044	-2.385833	 28.452760	 0.000004	 18.244190	-2.293880	 179.128400	-1.450235	-12.720350	 0.730389	 2.375483	 70.914600	 4.038148	 2.384658	 28.388730	 0.000004	-1.221951	 2.704934	 0.167479	-0.601326	 3.692744	-0.280005	 1.849866	-4.701224	 0.426269	-91.776200	 78.527490	 180.000000	 64.896200	 42.672730	-53.893380	-7.518017	 5.228862	-13.198570	-31.395810	-24.883790	-4.795868	-2.635965	 4.993658	 6.788941	-5.165319	 0.784187	 3.516649	-5.225038	 0.466231	 0.424329	-0.000002	-3.783157	-0.089647	 1.797385	 5.020599	-0.078819	 89.782170	 78.203890	 179.999900	-63.026470	 39.965520	 57.867950	 5.054218	 4.832638	 12.552560	 32.836160	-27.129180	 8.963851	 6.112037	 4.509576	-0.364401	 4.968462	 1.518543	-9.347576	 5.168945	 0.703820	 2.021906
-0.000037	 0.019399	 1.276690	-0.003121	 0.008103	 0.062561	-18.362380	-1.994112	-179.153000	 1.464584	-12.633760	-0.738833	-2.377463	 70.964670	-4.202694	-2.385833	 28.452760	 0.000004	 18.242040	-2.293845	 179.128600	-1.450232	-12.720340	 0.730388	 2.393813	 70.815930	 4.018866	 2.384658	 28.388730	 0.000004	-1.221946	 2.704934	 0.167486	-0.601319	 3.692753	-0.280024	 1.849874	-4.701231	 0.426276	-91.776240	 78.527470	-180.000000	 64.838140	 42.676090	-53.811780	-7.506978	 5.235274	-13.215140	-31.512080	-26.127490	-4.845932	-2.635965	 4.993658	 6.788941	-5.165319	 0.784187	 3.516649	-5.225038	 0.466231	 0.424329	-0.000002	-3.783157	-0.089647	 1.797385	 5.020599	-0.078819	 89.782130	 78.203870	 180.000000	-62.438520	 39.434870	 58.273130	 4.419265	 4.757371	 12.776210	 32.850420	-28.706750	 8.795648	 6.112037	 4.509576	-0.364401	 4.968462	 1.518543	-9.347576	 5.168945	 0.703820	 2.021906
-0.000034	 0.019361	 1.277385	-0.003121	 0.008103	 0.062561	-18.359880	-1.994152	-179.153200	 1.464588	-12.633870	-0.738839	-2.399112	 70.853450	-4.179966	-2.385833	 28.452760	 0.000004	 18.239580	-2.293878	 179.128800	-1.450233	-12.720430	 0.730394	 2.414249	 70.704680	 3.997346	 2.384658	 28.388730	 0.000004	-1.221946	 2.704934	 0.167486	-0.601319	 3.692753	-0.280020	 1.849874	-4.701228	 0.426275	-91.776260	 78.527470	-180.000000	 64.762600	 42.677750	-53.703720	-7.493322	 5.244254	-13.238330	-31.652450	-27.594970	-4.909365	-2.635965	 4.993658	 6.788941	-5.165319	 0.784187	 3.516649	-5.225038	 0.466231	 0.424329	-0.000002	-3.783157	-0.089647	 1.797385	 5.020599	-0.078819	 89.782100	 78.203890	 180.000000	-61.533200	 38.736490	 58.423300	 3.653839	 4.880650	 13.637430	 32.865490	-30.555810	 8.609681	 6.112037	 4.509576	-0.364401	 4.968462	 1.518543	-9.347576	 5.168945	 0.703820	 2.021906
-0.000030	 0.019327	 1.278081	-0.003121	 0.008103	 0.062561	-18.357360	-1.994083	-179.153300	 1.464583	-12.633760	-0.738832	-2.420339	 70.742470	-4.157640	-2.385833	 28.452760	 0.000004	 18.237030	-2.293806	 179.128900	-1.450232	-12.720320	 0.730389	 2.434197	 70.593690	 3.976222	 2.384658	 28.388730	 0.000004	-1.221946	 2.704933	 0.167486	-0.601319	 3.692752	-0.280031	 1.849872	-4.701231	 0.426281	-91.776220	 78.527490	-180.000000	 64.672400	 42.675180	-53.572810	-7.478488	 5.254718	-13.265280	-31.801210	-29.108680	-4.980028	-2.635965	 4.993658	 6.788941	-5.165319	 0.784187	 3.516649	-5.225038	 0.466231	 0.424329	-0.000002	-3.783157	-0.089647	 1.797385	 5.020599	-0.078819	 89.782100	 78.203890	 180.000000	-60.321260	 37.904620	 58.468150	 2.663602	 5.059605	 14.902860	 32.629080	-32.510290	 8.276256	 6.112037	 4.509576	-0.364401	 4.968462	 1.518543	-9.347576	 5.168945	 0.703820	 2.021906
-0.000027	 0.019296	 1.278778	-0.003113	 0.008108	 0.062574	-18.354810	-1.994032	-179.153500	 1.464577	-12.633680	-0.738830	-2.440800	 70.633670	-4.135997	-2.385833	 28.452760	 0.000004	 18.234550	-2.293748	 179.129100	-1.450238	-12.720220	 0.730379	 2.453564	 70.484850	 3.955732	 2.384658	 28.388730	 0.000004	-1.221951	 2.704934	 0.167479	-0.601325	 3.692738	-0.280002	 1.849874	-4.701221	 0.426265	-91.776260	 78.527470	-180.000000	 64.579190	 42.672370	-53.423080	-7.555317	 5.266123	-13.294860	-31.855140	-30.611850	-5.038845	-2.635965	 4.993658	 6.788941	-5.165319	 0.784187	 3.516649	-5.225038	 0.466231	 0.424329	-0.000002	-3.783157	-0.089647	 1.797385	 5.020599	-0.078819	 89.782180	 78.203890	 179.999900	-58.894040	 37.008960	 59.045790	 1.615782	 4.968684	 15.552140	 32.203530	-34.501900	 7.834717	 6.112037	 4.509576	-0.364401	 4.968462	 1.518543	-9.347576	 5.168945	 0.703820	 2.021906
